<svg xmlns="http://www.w3.org/2000/svg" viewBox="0 0 900 560" role="img" aria-labelledby="title desc">
  <title id="title">Drug prediction dashboard preview</title>
  <desc id="desc">A stylized medical analytics dashboard with patient data cards and a machine learning prediction chart.</desc>
  <defs>
    <linearGradient id="bg" x1="0" x2="1" y1="0" y2="1">
      <stop offset="0" stop-color="#0f766e"/>
      <stop offset="0.55" stop-color="#1d4ed8"/>
      <stop offset="1" stop-color="#111827"/>
    </linearGradient>
    <linearGradient id="card" x1="0" x2="1">
      <stop offset="0" stop-color="#ffffff" stop-opacity=".9"/>
      <stop offset="1" stop-color="#ecfeff" stop-opacity=".78"/>
    </linearGradient>
  </defs>
  <rect width="900" height="560" rx="42" fill="url(#bg)"/>
  <circle cx="775" cy="92" r="96" fill="#f59e0b" opacity=".22"/>
  <circle cx="90" cy="470" r="130" fill="#14b8a6" opacity=".2"/>
  <rect x="70" y="70" width="760" height="420" rx="32" fill="#f8fafc" opacity=".12" stroke="#fff" stroke-opacity=".35"/>
  <rect x="112" y="114" width="276" height="332" rx="24" fill="url(#card)"/>
  <rect x="430" y="114" width="358" height="156" rx="24" fill="url(#card)"/>
  <rect x="430" y="294" width="358" height="152" rx="24" fill="url(#card)"/>
  <rect x="144" y="154" width="96" height="96" rx="28" fill="#ccfbf1"/>
  <path d="M191 176v52M165 202h52" stroke="#0f766e" stroke-width="16" stroke-linecap="round"/>
  <rect x="144" y="288" width="196" height="16" rx="8" fill="#0f766e" opacity=".85"/>
  <rect x="144" y="324" width="156" height="14" rx="7" fill="#2563eb" opacity=".72"/>
  <rect x="144" y="358" width="118" height="14" rx="7" fill="#f59e0b" opacity=".82"/>
  <path d="M469 224c37-74 73-77 108-9 28 54 60 50 96-18 18-34 38-50 65-51" fill="none" stroke="#0f766e" stroke-width="14" stroke-linecap="round"/>
  <path d="M468 232h282" stroke="#111827" stroke-opacity=".14" stroke-width="8" stroke-linecap="round"/>
  <rect x="470" y="334" width="82" height="70" rx="14" fill="#dbeafe"/>
  <rect x="576" y="314" width="82" height="90" rx="14" fill="#ccfbf1"/>
  <rect x="682" y="350" width="82" height="54" rx="14" fill="#fef3c7"/>
  <text x="470" y="174" font-family="Arial, sans-serif" font-size="34" font-weight="700" fill="#0f172a">ML drug prediction</text>
  <text x="470" y="386" font-family="Arial, sans-serif" font-size="28" font-weight="700" fill="#0f172a">Flask + Decision Tree</text>
</svg>
