<svg xmlns="http://www.w3.org/2000/svg" viewBox="0 0 900 560" role="img" aria-labelledby="title desc">
  <title id="title">Library management system preview</title>
  <desc id="desc">A stylized library inventory application with shelves, cards, and member transaction records.</desc>
  <defs>
    <linearGradient id="bg" x1="0" x2="1" y1="0" y2="1">
      <stop offset="0" stop-color="#7c2d12"/>
      <stop offset=".52" stop-color="#be123c"/>
      <stop offset="1" stop-color="#1e293b"/>
    </linearGradient>
    <linearGradient id="panel" x1="0" x2="1">
      <stop offset="0" stop-color="#fff7ed" stop-opacity=".95"/>
      <stop offset="1" stop-color="#ffe4e6" stop-opacity=".82"/>
    </linearGradient>
  </defs>
  <rect width="900" height="560" rx="42" fill="url(#bg)"/>
  <circle cx="120" cy="115" r="105" fill="#facc15" opacity=".18"/>
  <circle cx="748" cy="452" r="128" fill="#fb7185" opacity=".2"/>
  <rect x="78" y="72" width="744" height="416" rx="32" fill="#fff" opacity=".12" stroke="#fff" stroke-opacity=".35"/>
  <rect x="120" y="116" width="248" height="328" rx="26" fill="url(#panel)"/>
  <rect x="410" y="116" width="370" height="92" rx="24" fill="url(#panel)"/>
  <rect x="410" y="238" width="370" height="206" rx="24" fill="url(#panel)"/>
  <rect x="154" y="164" width="40" height="210" rx="10" fill="#0f766e"/>
  <rect x="208" y="144" width="40" height="230" rx="10" fill="#1d4ed8"/>
  <rect x="262" y="184" width="40" height="190" rx="10" fill="#f59e0b"/>
  <path d="M152 390h166" stroke="#7c2d12" stroke-width="14" stroke-linecap="round"/>
  <rect x="450" y="150" width="172" height="18" rx="9" fill="#be123c" opacity=".85"/>
  <rect x="450" y="284" width="280" height="18" rx="9" fill="#0f172a" opacity=".18"/>
  <rect x="450" y="326" width="238" height="18" rx="9" fill="#0f172a" opacity=".18"/>
  <rect x="450" y="368" width="300" height="18" rx="9" fill="#0f172a" opacity=".18"/>
  <circle cx="704" cy="159" r="28" fill="#0f766e" opacity=".85"/>
  <path d="M692 159h24M704 147v24" stroke="#fff7ed" stroke-width="8" stroke-linecap="round"/>
  <text x="450" y="198" font-family="Arial, sans-serif" font-size="29" font-weight="700" fill="#0f172a">Book inventory</text>
  <text x="450" y="258" font-family="Arial, sans-serif" font-size="30" font-weight="700" fill="#0f172a">Members and transactions</text>
</svg>
